<svg aria-hidden="true" version="1.1" xmlns="http://www.w3.org/2000/svg" xmlns:xlink="http://www.w3.org/1999/xlink">
<defs>
<symbol id="icon-arrow-left" viewBox="0 0 32 32">
<path d="M30.815 14.815c0.655 0 1.185 0.531 1.185 1.185s-0.531 1.185-1.185 1.185v0-2.37zM0.347 16.838c-0.214-0.214-0.347-0.511-0.347-0.838s0.133-0.623 0.347-0.838l7.543-7.543c0.211-0.199 0.497-0.321 0.811-0.321 0.655 0 1.185 0.531 1.185 1.185 0 0.314-0.122 0.6-0.322 0.812l0.001-0.001-6.703 6.705 6.705 6.705c0.223 0.216 0.362 0.518 0.362 0.852 0 0.655-0.531 1.185-1.185 1.185-0.335 0-0.637-0.139-0.852-0.361l-0-0-7.543-7.543zM30.815 17.185h-29.63v-2.37h29.63v2.37z"></path>
</symbol>
<symbol id="icon-arrow-right" viewBox="0 0 32 32">
<path d="M1.185 14.815c-0.655 0-1.185 0.531-1.185 1.185s0.531 1.185 1.185 1.185v0-2.37zM31.653 16.838c0.214-0.214 0.347-0.511 0.347-0.838s-0.133-0.623-0.347-0.838l-7.543-7.543c-0.216-0.223-0.518-0.362-0.852-0.362-0.655 0-1.185 0.531-1.185 1.185 0 0.335 0.139 0.637 0.361 0.852l0 0 6.705 6.705-6.705 6.705c-0.206 0.213-0.333 0.503-0.333 0.823 0 0.655 0.531 1.185 1.185 1.185 0.32 0 0.61-0.127 0.824-0.333l-0 0 7.543-7.543zM1.185 17.185h29.63v-2.37h-29.63v2.37z"></path>
</symbol>
<symbol id="icon-audio-book" viewBox="0 0 32 32">
<path d="M3.018 26.769h9.923c0.496 1.036 1.536 1.74 2.74 1.74 0.001 0 0.001 0 0.002 0h0.627c0.001 0 0.002 0 0.003 0 1.204 0 2.245-0.703 2.732-1.721l0.008-0.018h9.929c1.022 0 1.854-0.843 1.854-1.879v-18.010c0-1.036-0.832-1.879-1.855-1.879h-1.001v-0.84c0-0.691-0.555-1.253-1.237-1.253h-21.494c-0.681 0-1.235 0.562-1.235 1.253v0.84h-0.997c-1.022 0-1.854 0.843-1.854 1.879v18.010c0 1.036 0.832 1.879 1.855 1.879zM26.743 22.904h-10.124v-14.557c2.34 0.311 4.154 2.34 4.154 4.794v0.564l-0.147-0.032c-0.040-0.009-0.086-0.014-0.133-0.014-0.296 0-0.544 0.209-0.603 0.488l-0.001 0.004-0.984 4.538c-0.073 0.337 0.137 0.671 0.471 0.745l2.127 0.475c0.11 0.023 0.221 0.035 0.333 0.035 0.748 0 1.385-0.518 1.548-1.262l0.57-2.624c0.187-0.862-0.352-1.719-1.204-1.911l-0.741-0.166v-0.841c0-3.147-2.367-5.744-5.391-6.060v-2.92h10.126l-0.001 18.743zM20.964 15.032l1.519 0.339c0.157 0.036 0.273 0.174 0.273 0.339 0 0.028-0.003 0.055-0.009 0.081l0-0.002-0.569 2.624c-0.041 0.16-0.184 0.277-0.355 0.277-0.020 0-0.040-0.002-0.059-0.005l0.002 0-1.52-0.34 0.719-3.313zM5.25 4.161h10.131v2.919c-3.027 0.314-5.397 2.912-5.397 6.061v0.841l-0.741 0.166c-0.413 0.093-0.766 0.342-0.992 0.702-0.156 0.243-0.249 0.54-0.249 0.859 0 0.124 0.014 0.244 0.041 0.36l-0.002-0.011 0.568 2.621c0.156 0.725 0.789 1.261 1.548 1.266h0.001c0.112 0 0.223-0.012 0.337-0.037l2.118-0.474c0.333-0.075 0.543-0.408 0.47-0.746l-0.983-4.538c-0.060-0.283-0.308-0.492-0.604-0.492-0.047 0-0.093 0.005-0.137 0.015l0.004-0.001-0.142 0.032v-0.564c0-2.456 1.818-4.487 4.161-4.794v14.558h-10.132v-18.742zM11.025 15.032l0.72 3.313-1.512 0.339c-0.022 0.005-0.047 0.008-0.072 0.008-0.168 0-0.308-0.117-0.343-0.275l-0-0.002-0.569-2.627c-0.006-0.023-0.009-0.050-0.009-0.078 0-0.165 0.115-0.302 0.268-0.338l0.002-0 1.514-0.339zM2.4 6.881c0-0.001 0-0.003 0-0.004 0-0.342 0.276-0.62 0.618-0.623h0.995v16.65c0 0.691 0.555 1.253 1.237 1.253h21.494c0.682 0 1.236-0.562 1.236-1.253v-16.65h1.001c0.342 0.002 0.619 0.28 0.619 0.623 0 0.001 0 0.003 0 0.004v-0 18.009c0 0.001 0 0.003 0 0.004 0 0.342-0.276 0.62-0.618 0.623h-10.348c-0.272 0-0.511 0.18-0.591 0.442-0.227 0.756-0.916 1.297-1.732 1.297h-0.627c-0.798 0-1.494-0.519-1.734-1.304-0.081-0.253-0.313-0.434-0.589-0.435h-10.343c-0.342-0.002-0.619-0.28-0.619-0.623 0-0.001 0-0.003 0-0.004v0-18.010z"></path>
</symbol>
<symbol id="icon-campfire" viewBox="0 0 32 32">
<path d="M26.176 16.593c-0.284-0.636-0.675-1.261-1.247-1.984-1.442-1.813-1.883-5.856-1.888-5.895-0.022-0.194-0.155-0.353-0.334-0.411l-0.003-0.001c-0.045-0.015-0.096-0.023-0.149-0.023-0.146 0-0.277 0.063-0.368 0.163l-0 0c-1.722 1.924-0.997 4.896-0.607 6.084 0.108 0.325 0.225 0.708 0.309 1.097 0.635 3.136-0.593 4.557-0.881 4.843-0.278 0.078-0.469 0.039-0.645-0.149-0.606-0.665-0.806-2.842-0.523-5.678 0.023-0.194 0.036-0.419 0.036-0.647 0-0.33-0.027-0.653-0.080-0.968l0.005 0.034c-0.597-3.486-2.79-5.723-3.349-6.507-1.535-2.269-1.691-6.046-1.696-6.080-0.011-0.261-0.225-0.468-0.488-0.468-0.102 0-0.198 0.032-0.276 0.086l0.002-0.001c-2.562 1.742-2.341 5.936-1.984 8.277 0.082 0.544 0.243 1.095 0.523 1.794 0.992 2.496-0.196 5.722-0.206 5.749-0.011 0.030-0.019 0.053-0.025 0.083-0.151 0.796-0.405 1.27-0.689 1.27-0.033-0.001-0.065-0.006-0.095-0.016l0.002 0.001c-0.348-0.073-0.528-0.441-0.533-0.761-0.019-4.135-4.171-5.527-4.213-5.542-0.045-0.015-0.096-0.023-0.149-0.023-0.147 0-0.279 0.066-0.369 0.169l-0.001 0.001c-0.075 0.084-0.121 0.195-0.121 0.317 0 0.079 0.019 0.153 0.053 0.219l-0.001-0.003c0.049 0.101 0.206 0.547 0.098 2.123-0.102 1.521-0.376 2.939-0.803 4.288l0.035-0.128c-0.987 3.221-0.831 6.271-0.821 6.416 0.759 8.258 12.636 9.705 19.683 5.053 0.772-0.51 1.403-1.091 1.867-1.731 2.603-3.588 1.072-8.461-0.067-11.051zM8.111 24.48c0 0.008 0.001 0.016 0.001 0.025 0 0.259-0.203 0.47-0.458 0.484l-0.001 0h-0.030c-0.001 0-0.002 0-0.003 0-0.258 0-0.469-0.201-0.485-0.454l-0-0.001c-0.017-0.292-0.027-0.634-0.027-0.978 0-0.449 0.017-0.894 0.050-1.334l-0.004 0.059c0.022-0.254 0.234-0.452 0.492-0.452 0.011 0 0.021 0 0.032 0.001l-0.001-0c0.256 0.017 0.456 0.229 0.456 0.487 0 0.011-0 0.022-0.001 0.032l0-0.001c-0.053 0.766-0.064 1.465-0.020 2.133zM8.351 20.185c-0.030 0.242-0.234 0.427-0.482 0.427-0.001 0-0.002 0-0.003 0h0c-0.019 0-0.039 0-0.064-0.005-0.242-0.032-0.427-0.237-0.427-0.486 0-0.018 0.001-0.036 0.003-0.054l-0 0.002 0.235-1.872c0.035-0.241 0.241-0.425 0.489-0.425 0.021 0 0.041 0.001 0.061 0.004l-0.002-0c0.269 0.034 0.459 0.276 0.426 0.543l-0.235 1.867zM22.869 6.634c-0.236-0.036-0.415-0.237-0.415-0.48 0-0.026 0.002-0.051 0.006-0.075l-0 0.003c0.031-0.197 0.207-1.205 0.687-1.713 0.090-0.095 0.216-0.153 0.356-0.153 0.13 0 0.247 0.050 0.335 0.132l-0-0c0.196 0.182 0.207 0.49 0.021 0.685-0.203 0.214-0.375 0.829-0.433 1.197-0.039 0.234-0.24 0.411-0.482 0.411-0.027 0-0.053-0.002-0.078-0.006l0.003 0zM5.045 9.049c-0.094-0.361-0.326-0.956-0.549-1.15-0.102-0.089-0.167-0.219-0.167-0.365 0-0.123 0.046-0.235 0.121-0.32l-0 0c0.090-0.102 0.222-0.166 0.368-0.166 0.124 0 0.237 0.046 0.323 0.121l-0.001-0c0.527 0.459 0.802 1.444 0.852 1.637 0.010 0.036 0.015 0.077 0.015 0.12 0 0.226-0.155 0.416-0.364 0.469l-0.003 0.001c-0.036 0.010-0.078 0.015-0.121 0.015-0.226 0-0.416-0.153-0.473-0.361l-0.001-0.003z"></path>
</symbol>
<symbol fill="#3D3D3D" id="icon-campfire-bg" viewBox="0 0 32 32">
<path d="M31.003 21.831c-0.373-0.836-0.887-1.659-1.639-2.609-1.896-2.386-2.474-7.706-2.481-7.757-0.026-0.255-0.206-0.466-0.443-0.542-0.059-0.019-0.127-0.031-0.197-0.031-0.192 0-0.364 0.083-0.484 0.215l-0 0.001c-2.262 2.533-1.311 6.443-0.797 8.006 0.141 0.427 0.296 0.931 0.405 1.442 0.835 4.127-0.778 5.996-1.157 6.373-0.366 0.102-0.617 0.051-0.848-0.198-0.797-0.874-1.060-3.738-0.688-7.47 0.077-0.759 0.058-1.442-0.051-2.080-0.786-4.587-3.668-7.529-4.402-8.561-2.018-2.985-2.224-7.955-2.23-7.999-0.006-0.236-0.141-0.447-0.353-0.549-0.206-0.102-0.456-0.089-0.649 0.045-3.368 2.29-3.078 7.808-2.609 10.889 0.109 0.714 0.321 1.442 0.688 2.36 1.305 3.285-0.257 7.527-0.27 7.566s-0.026 0.070-0.032 0.108c-0.199 1.046-0.533 1.671-0.906 1.671-0.039 0-0.077-0.006-0.122-0.019-0.456-0.096-0.694-0.581-0.7-1.002-0.026-5.441-5.482-7.272-5.54-7.291-0.244-0.077-0.514-0.006-0.681 0.191-0.174 0.198-0.206 0.472-0.090 0.702 0.064 0.134 0.27 0.721 0.128 2.794-0.122 1.863-0.463 3.706-1.009 5.473-1.298 4.236-1.092 8.248-1.080 8.439 0.998 10.864 16.609 12.768 25.873 6.647 1.015-0.67 1.844-1.435 2.455-2.277 3.419-4.721 1.407-11.131-0.090-14.538zM7.257 32.21c0.019 0.351-0.251 0.651-0.604 0.67h-0.039c-0.341 0-0.623-0.262-0.643-0.6-0.058-0.931-0.045-1.907 0.026-2.966 0.026-0.351 0.334-0.612 0.688-0.593 0.354 0.026 0.623 0.332 0.598 0.683-0.071 1.008-0.084 1.927-0.026 2.807zM7.571 26.558c-0.038 0.325-0.315 0.561-0.636 0.561-0.026 0-0.051 0-0.084-0.006-0.347-0.045-0.598-0.357-0.559-0.708l0.308-2.462c0.045-0.344 0.36-0.593 0.72-0.555 0.354 0.045 0.604 0.364 0.559 0.714l-0.308 2.456zM26.655 8.727c-0.351-0.054-0.591-0.379-0.537-0.727 0.040-0.259 0.272-1.586 0.902-2.253 0.243-0.257 0.649-0.271 0.908-0.029 0.125 0.116 0.203 0.282 0.203 0.465 0 0.169-0.066 0.323-0.174 0.437l0-0c-0.267 0.283-0.494 1.091-0.57 1.575-0.054 0.344-0.378 0.586-0.733 0.533zM3.226 11.905c-0.123-0.474-0.429-1.257-0.722-1.512-0.267-0.232-0.294-0.635-0.060-0.9s0.639-0.292 0.907-0.059c0.692 0.603 1.054 1.901 1.12 2.154 0.088 0.341-0.119 0.688-0.463 0.776-0.351 0.088-0.695-0.123-0.783-0.459z"></path>
</symbol>
<symbol id="icon-facebook" viewBox="0 0 32 32">
<path fill="#436eab" style="fill: var(--color2, #436eab)" d="M26.776 2.314h-21.552c-0.779 0-1.527 0.307-2.078 0.854-0.531 0.526-0.86 1.254-0.86 2.060v21.363c0 0.773 0.31 1.513 0.86 2.060s1.298 0.853 2.078 0.853h8.403v-9.243h-3.857v-4.352h3.858v-3.315c0-3.772 2.265-5.856 5.734-5.856 1.661 0 3.398 0.294 3.398 0.294v3.702h-1.914c-1.887 0-2.475 1.161-2.475 2.35v2.825h4.21l-0.674 4.352h-3.538v9.243h8.404c0.779 0 1.527-0.307 2.078-0.853 0.531-0.525 0.861-1.254 0.861-2.060v-21.363c0-0.773-0.31-1.514-0.86-2.060-0.533-0.528-1.267-0.854-2.077-0.854-0 0-0.001 0-0.002 0h0z"></path>
</symbol>
<symbol id="icon-female-student" viewBox="0 0 32 32">
<path d="M4.124 29.091h23.775c0.118-2.634-0.077-7.005-1.744-9.085l-0.060-0.075-3.643-1.777c0.079-0.259 0.118-0.497 0.134-0.671 0.017-0.209-0.012-0.406-0.089-0.585-0.601-1.397-1.873-2.132-2.572-2.445 0.199-0.384 0.345-0.829 0.414-1.3l0.003-0.023c0.401-0.109 0.711-0.419 0.817-0.812l0.002-0.008 0.425-1.678c0.022-0.083 0.035-0.178 0.035-0.277 0-0.355-0.167-0.671-0.427-0.874l-0.002-0.002c1.199-2.646-0.809-5.14-0.919-5.271-2.174-2.285-4.921-1.858-5.066-1.833-3.965 0.807-5.495 3.759-4.631 7.22-0.187 0.199-0.302 0.467-0.302 0.762 0 0.097 0.012 0.191 0.036 0.281l-0.002-0.008 0.427 1.68c0.108 0.399 0.415 0.708 0.805 0.816l0.008 0.002c0.128 0.856 0.494 1.61 1.027 2.212l-0.004-0.005v1.33c-5.689 2.831-2.085 1.025-6.643 3.266-0.009 0.042-2.139 2.242-1.823 8.761l0.019 0.399zM27.073 28.255h-3.913v-1.597l2.588-5.756c1.296 2.090 1.344 6.083 1.325 7.354zM21.733 17.412c-0.151 1.686-1.102 1.176-1.69 2.474-0.461-0.493-0.6-1.085-0.477-1.719 0.225-1.163-0.506-1.509-0.326-2.73l0.027-0.028v-0.004c0.016-0.017 0.16-0.183 0.201-0.236 1.548 0.656 2.294 1.875 2.263 2.243zM13.428 16.087c0.706 0.483 1.578 0.771 2.518 0.771 0.001 0 0.001 0 0.002 0h-0c0.879 0 1.713-0.248 2.429-0.706 0.099 0.961 0.486 1.153 0.349 1.86-0.022 0.111-0.040 0.244-0.048 0.379l-0 0.009-2.665 2.918-3.406-3.732 0.822-0.417v-1.081zM12.357 12.515v-4.461c0.415-0.745 0.98-1.286 1.683-1.609 1.882 1.034 4.048 2.578 5.501 4.132-0.001 1.979 0.006 1.984-0.008 2.147l-0.001 0.010c-0.113 1.797-1.634 3.286-3.584 3.286-1.896 0-3.47-1.446-3.584-3.304-0.005-0.054-0.007-0.117-0.007-0.181 0-0.007 0-0.015 0-0.022v0.001zM11.826 17.989l4.186 4.585 2.81-3.077c0.065 0.18 0.155 0.349 0.258 0.514l-3.068 3.727-4.575-5.559 0.389-0.19zM20.397 11.842v-1.292l0.32-0.356c0.017 0.655 0.090-0.118-0.32 1.648zM15.366 3.196c0.17 0.010 2.455-0.337 4.26 1.556 0.071 0.087 1.541 1.926 0.95 3.939-0.202-0.895-0.554-2.043-1.111-2.591l-0.608 0.589c0.549 0.541 0.911 2.188 1.048 3.042-2.521-2.563-5.773-4.186-5.818-4.214-0.163 0.099-1.54 0.353-2.539 2.24l-0.048 0.091v1.386l-0.126 0.001c-0.635-2.979 0.581-5.346 3.992-6.040zM11.283 10.097l0.216 0.852v0.895l-0.36-1.414c-0.052-0.211 0.108-0.291 0.143-0.332zM10.653 18.562l5.359 6.512 3.626-4.406c0.394 0.343 0.584 0.392 1.421 0.809l-0.282-0.929c-0.072-0.236 0.212-0.615 0.383-0.789 0.383-0.204 0.699-0.489 0.933-0.834l0.006-0.009 2.959 1.443-2.753 6.124v1.772h-12.584v-1.773l-2.754-6.122 3.686-1.798zM6.276 20.904l2.588 5.755v1.597h-3.913c-0.020-1.271 0.029-5.26 1.325-7.352z"></path>
</symbol>
<symbol id="icon-mobile-learning-all" viewBox="0 0 32 32">
<path d="M22.375 8.412h-7.256c-0.473 0.001-0.856 0.384-0.856 0.856v3.003l-5.39 2.263c-0.064 0.027-0.108 0.089-0.108 0.162 0 0.064 0.034 0.119 0.085 0.15l0.001 0 0.687 0.411v4.385c-0.355 0.083-0.615 0.397-0.615 0.771v0.423c0 0.097 0.078 0.176 0.176 0.176h1.231c0.097 0 0.176-0.079 0.176-0.176v0-0.423c0-0.376-0.264-0.69-0.616-0.771v-4.175l0.544 0.325c-0.017 0.126-0.002-0.218-0.008 2.041 0 0.743 1.902 1.141 3.838 1.164v3.422c0 0.472 0.383 0.855 0.856 0.855 0 0 0 0 0.001 0h7.256c0.472-0.001 0.855-0.383 0.856-0.856v-0c0 0.024-0.001-0.725 0-13.15 0-0.466-0.385-0.857-0.855-0.857zM10.153 20.413v0.247h-0.88v-0.247c0-0.243 0.197-0.441 0.439-0.441 0.243 0 0.441 0.198 0.441 0.441zM22.375 22.923h-7.256c-0.174 0-0.328-0.088-0.419-0.222-0.054-0.079-0.086-0.176-0.086-0.281 0-0 0-0.001 0-0.001v0-1.186h8.264v1.186c0 0.275-0.229 0.503-0.503 0.503zM22.878 20.882h-8.264v-1.883c0.945-0.011 3.841-0.219 3.841-1.165-0.001-1.42 0.003-1.995-0.004-2.044l1.576-0.944c0.051-0.031 0.085-0.087 0.085-0.15 0-0.072-0.044-0.134-0.106-0.161l-0.001-0-5.39-2.263v-1.466h8.264v10.077zM14.438 16.669c-0.973 0-2.848 0.126-3.663 0.658 0.005-1.627-0.056-1.521 0.144-1.659 0.506-0.372 1.953-0.632 3.519-0.632 0.683 0 3.665 0.188 3.665 0.819v1.473c-0.822-0.537-2.687-0.658-3.665-0.658zM14.614 9.268c0-0.279 0.226-0.504 0.505-0.504h7.256c0.279 0 0.504 0.23 0.504 0.504v1.186h-8.264v-1.186zM14.439 12.579l5.11 2.145-1.266 0.758c-0.673-0.668-2.9-0.797-3.844-0.797s-3.172 0.13-3.844 0.797l-1.267-0.758 5.111-2.145zM10.775 17.834c0-0.284 1.258-0.814 3.663-0.814 2.406 0 3.665 0.53 3.665 0.814s-1.259 0.815-3.665 0.815c-2.405 0-3.663-0.53-3.663-0.815z"></path>
<path d="M18.747 21.497c-0.32 0-0.58 0.26-0.58 0.58s0.26 0.581 0.58 0.581 0.58-0.26 0.58-0.581c0-0.32-0.26-0.58-0.58-0.58zM18.747 22.308c-0.121-0.008-0.215-0.108-0.215-0.23s0.095-0.222 0.215-0.229l0.001-0c0.123 0.005 0.221 0.106 0.221 0.23s-0.098 0.225-0.221 0.229h-0zM19.416 9.434h-1.34v0.351h1.339v-0.351z"></path>
<path fill="none" stroke="#ff6b09" style="stroke: var(--color1, #ff6b09)" stroke-linejoin="miter" stroke-linecap="butt" stroke-miterlimit="4" stroke-width="0.6275" d="M31.686 4.62v-4.306h-31.373v31.373h31.373v-4.306"></path>
</symbol>
<symbol id="icon-financial" viewBox="0 0 32 32">
<path d="M9.667 14.937c0 0.168-0.255 0.168-0.255 0 0-3.571 2.896-6.467 6.467-6.467 3.572 0 6.467 2.896 6.467 6.467 0 0.168-0.253 0.168-0.253 0 0-2.414-3.966-2.415-3.966 0 0 0.168-0.261 0.168-0.261 0 0-2.408-3.972-2.408-3.972 0 0 0.168-0.261 0.168-0.261 0 0-2.403-3.965-2.42-3.965 0zM13.654 14c0.069-1.389 0.287-2.635 0.605-3.586 0.254-0.756 0.574-1.33 0.937-1.652-2.727 0.298-4.934 2.365-5.427 5.046 0.939-1.354 3.107-1.245 3.886 0.192zM17.845 13.937c-0.070-1.336-0.282-2.531-0.588-3.442-0.787-2.359-1.969-2.359-2.757 0-0.305 0.911-0.516 2.107-0.588 3.442 0.847-1.44 3.085-1.44 3.933 0zM21.988 13.808c-0.492-2.681-2.699-4.748-5.427-5.046 0.365 0.322 0.684 0.896 0.937 1.652 0.317 0.951 0.536 2.197 0.605 3.586 0.783-1.446 2.957-1.531 3.886-0.192zM15.030 17.896v-1.313c-0.237 0.157-0.423 0.4-0.423 0.696 0 0.289 0.189 0.479 0.423 0.617zM15.285 18.304c-0.453-0.208-0.931-0.451-0.931-1.025 0-0.592 0.45-0.888 0.931-1.11v2.135zM16.728 19.878v1.328c0.24-0.159 0.427-0.403 0.427-0.7 0-0.291-0.192-0.488-0.427-0.629zM16.474 19.469c0.455 0.21 0.936 0.461 0.936 1.038 0 0.594-0.454 0.89-0.936 1.11v-2.148z"></path>
<path d="M16.728 15.089c1.044 0.241 2.118 1.023 2.118 2.191 0 1-1.69 0.963-1.69 0 0-0.298-0.188-0.542-0.427-0.699v1.869c0.966 0.316 2.12 0.882 2.12 2.058 0 1.169-1.073 1.95-2.121 2.189-0.004 1.113-1.694 1.111-1.697-0.002-0.595-0.137-1.113-0.415-1.487-0.783-0.392-0.388-0.624-0.875-0.624-1.405 0-0.984 1.688-0.984 1.688 0 0 0.295 0.186 0.537 0.423 0.695v-1.867c-0.959-0.31-2.119-0.893-2.119-2.058 0-1.169 1.073-1.95 2.119-2.189 0.004-1.113 1.694-1.112 1.697 0.002zM15.285 15.092v0.203c-0.994 0.197-2.12 0.834-2.12 1.981 0 1.104 1.237 1.598 2.121 1.872v2.467c-0.478-0.218-0.932-0.513-0.932-1.108 0-0.651-1.181-0.651-1.181 0 0 0.459 0.205 0.884 0.55 1.223 0.438 0.434 0.969 0.64 1.563 0.757v0.205c0 0.783 1.189 0.783 1.189 0v-0.203c0.997-0.199 2.119-0.835 2.119-1.982 0-1.114-1.234-1.594-2.119-1.873v-2.466c0.479 0.218 0.936 0.513 0.936 1.112 0 0.634 1.18 0.659 1.18 0 0-1.147-1.12-1.785-2.116-1.983v-0.205c0-0.783-1.189-0.783-1.189 0z"></path>
<path fill="none" stroke="#ff6b09" style="stroke: var(--color1, #ff6b09)" stroke-linejoin="miter" stroke-linecap="butt" stroke-miterlimit="4" stroke-width="0.6275" d="M31.686 4.62v-4.306h-31.373v31.373h31.373v-4.306"></path>
</symbol>
<symbol id="icon-female-student-all" viewBox="0 0 32 32">
<path d="M9.753 23.074c1.619 0 10.987 0 12.605 0 0.062-1.437-0.041-3.822-0.924-4.957l-0.032-0.041-1.931-0.97c0.042-0.141 0.063-0.271 0.071-0.366 0.010-0.114-0.006-0.222-0.047-0.319-0.319-0.762-0.993-1.163-1.364-1.335 0.113-0.228 0.186-0.472 0.221-0.722 0.21-0.059 0.379-0.225 0.434-0.447l0.225-0.916c0.040-0.162 0.015-0.329-0.071-0.472-0.037-0.061-0.085-0.113-0.138-0.157 0.636-1.444-0.429-2.805-0.487-2.877-1.153-1.246-2.609-1.013-2.686-1-2.102 0.44-2.913 2.051-2.455 3.94-0.136 0.15-0.193 0.36-0.142 0.565l0.227 0.917c0.055 0.22 0.222 0.386 0.431 0.446 0.064 0.457 0.258 0.871 0.542 1.204v0.726c-3.016 1.544-1.105 0.559-3.522 1.782-0.005 0.023-1.134 1.223-0.966 4.781l0.010 0.217zM21.919 22.618h-2.074v-0.871l1.372-3.141c0.687 1.141 0.713 3.319 0.702 4.012zM19.088 16.701c-0.080 0.92-0.584 0.642-0.896 1.35-0.245-0.269-0.319-0.592-0.253-0.938 0.119-0.635-0.268-0.823-0.173-1.49l0.015-0.015v-0.002c0.008-0.009 0.085-0.1 0.107-0.129 0.821 0.358 1.216 1.023 1.2 1.224zM14.685 15.978c0.381 0.264 0.841 0.42 1.336 0.42 0.466 0 0.908-0.136 1.288-0.385 0.053 0.524 0.257 0.629 0.185 1.015-0.014 0.072-0.021 0.142-0.025 0.212l-1.413 1.592-1.806-2.036 0.436-0.228v-0.59zM14.117 14.030v-0.883c0-0.325 0-1.615 0-1.551 0.22-0.407 0.52-0.702 0.892-0.878 0.998 0.565 2.146 1.407 2.916 2.255-0.001 1.080 0.003 1.083-0.004 1.171l-0 0.006c-0.060 0.98-0.866 1.793-1.9 1.793-1.005 0-1.839-0.789-1.9-1.803-0.003-0.036-0.004-0.073-0.004-0.11zM13.836 17.017l2.219 2.502 1.49-1.679c0.034 0.098 0.082 0.191 0.136 0.28l-1.626 2.034-2.425-3.033 0.206-0.103zM18.38 13.663v-0.705c0.020-0.023 0.189-0.217 0.169-0.194 0.009 0.357 0.048-0.064-0.169 0.899zM15.712 8.945c0.090 0.006 1.301-0.184 2.258 0.849 0.038 0.047 0.817 1.051 0.504 2.149-0.107-0.489-0.294-1.115-0.589-1.414l-0.323 0.321c0.291 0.295 0.483 1.194 0.556 1.66-1.337-1.399-3.061-2.284-3.085-2.299-0.086 0.054-0.816 0.193-1.346 1.223l-0.025 0.049v0.756c-0.023 0-0.090 0.001-0.067 0.001-0.337-1.626 0.308-2.917 2.116-3.296zM13.548 12.71l0.115 0.465v0.488l-0.191-0.771c-0.028-0.115 0.057-0.159 0.076-0.181zM13.214 17.329l2.841 3.553 1.922-2.404c0.209 0.187 0.31 0.214 0.753 0.442l-0.15-0.507c-0.038-0.129 0.112-0.335 0.203-0.43 0.203-0.11 0.371-0.267 0.498-0.46l1.568 0.788-1.459 3.341v0.967h-6.671v-0.967l-1.46-3.341 1.954-0.981zM10.893 18.606l1.372 3.14v0.871h-2.074c-0.010-0.693 0.015-2.87 0.702-4.011z"></path>
<path fill="none" stroke="#ff6b09" style="stroke: var(--color1, #ff6b09)" stroke-linejoin="miter" stroke-linecap="butt" stroke-miterlimit="4" stroke-width="0.6275" d="M31.686 4.62v-4.306h-31.373v31.373h31.373v-4.306"></path>
</symbol>
<symbol id="icon-close" viewBox="0 0 32 32">
<path fill="none" stroke="#fff" style="stroke: var(--color3, #fff)" stroke-linejoin="miter" stroke-linecap="round" stroke-miterlimit="4" stroke-width="3.5556" d="M2.67 28.885l25.771-25.771M28.441 28.885l-25.771-25.771"></path>
</symbol>
<symbol id="icon-logo-white" viewBox="0 0 91 32">
<path fill="#fff" style="fill: var(--color1, #fff)" d="M13.608 4.836v12.942h-3.661v-5.047h-4.992v5.047h-3.661v-12.942h3.661v4.863h4.992v-4.863h3.661zM27.006 12.786c0 0.025-0.018 0.314-0.055 0.869h-7.285c0.148 0.518 0.431 0.918 0.851 1.202 0.431 0.271 0.968 0.407 1.609 0.407 0.481 0 0.894-0.068 1.239-0.203 0.357-0.136 0.715-0.357 1.072-0.666l1.849 1.923c-0.974 1.085-2.397 1.627-4.271 1.627-1.171 0-2.2-0.222-3.088-0.666s-1.578-1.060-2.071-1.849c-0.481-0.789-0.721-1.683-0.721-2.681 0-0.986 0.234-1.867 0.703-2.644 0.481-0.789 1.14-1.405 1.978-1.849s1.781-0.666 2.829-0.666c0.998 0 1.904 0.21 2.718 0.629 0.814 0.407 1.454 1.005 1.923 1.793 0.481 0.777 0.721 1.701 0.721 2.773zM21.663 10.086c-0.542 0-0.998 0.154-1.368 0.462-0.357 0.308-0.586 0.727-0.684 1.257h4.105c-0.099-0.53-0.333-0.949-0.703-1.257-0.357-0.308-0.807-0.462-1.35-0.462zM29.365 4.059h3.513v13.719h-3.513v-13.719zM35.901 4.059h3.513v13.719h-3.513v-13.719z"></path>
<path fill="#ff6b09" style="fill: var(--color2, #ff6b09)" d="M5.547 26.596v3.982h-0.922v-1.633h-1.809v1.633h-0.922v-3.982h0.922v1.57h1.809v-1.57h0.922zM10.596 29.838v0.74h-3.083v-3.982h3.009v0.74h-2.094v0.865h1.849v0.717h-1.849v0.922h2.167zM12.354 26.596h0.922v3.231h1.997v0.751h-2.918v-3.982zM16.811 26.596h0.922v3.231h1.997v0.751h-2.918v-3.982zM21.268 26.596h0.922v3.982h-0.922v-3.982zM25.467 30.646c-0.315 0-0.62-0.042-0.916-0.125-0.292-0.087-0.527-0.199-0.705-0.336l0.313-0.694c0.171 0.125 0.374 0.226 0.609 0.302s0.47 0.114 0.705 0.114c0.262 0 0.455-0.038 0.58-0.114 0.125-0.080 0.188-0.184 0.188-0.313 0-0.095-0.038-0.173-0.114-0.233-0.072-0.064-0.167-0.116-0.284-0.154-0.114-0.038-0.269-0.080-0.466-0.125-0.303-0.072-0.552-0.144-0.745-0.216s-0.36-0.188-0.501-0.347c-0.137-0.159-0.205-0.372-0.205-0.637 0-0.231 0.063-0.44 0.188-0.626 0.125-0.19 0.313-0.339 0.563-0.449 0.254-0.11 0.563-0.165 0.927-0.165 0.254 0 0.502 0.030 0.745 0.091s0.455 0.148 0.637 0.262l-0.284 0.7c-0.368-0.209-0.736-0.313-1.104-0.313-0.258 0-0.449 0.042-0.575 0.125-0.121 0.083-0.182 0.193-0.182 0.33s0.070 0.239 0.21 0.307c0.144 0.064 0.362 0.129 0.654 0.193 0.303 0.072 0.552 0.144 0.745 0.216s0.358 0.186 0.495 0.341c0.14 0.156 0.21 0.366 0.21 0.631 0 0.228-0.064 0.436-0.193 0.626-0.125 0.186-0.315 0.334-0.569 0.444s-0.563 0.165-0.927 0.165zM32.463 26.596v3.982h-0.922v-1.633h-1.809v1.633h-0.922v-3.982h0.922v1.57h1.809v-1.57h0.922z"></path>
<path fill="#fff" style="fill: var(--color1, #fff)" d="M40.148 29.838v0.74h-3.083v-3.982h3.009v0.74h-2.093v0.865h1.849v0.717h-1.849v0.922h2.167zM45.557 26.596v3.982h-0.757l-1.985-2.418v2.418h-0.91v-3.982h0.762l1.98 2.418v-2.418h0.91zM50.214 28.524h0.842v1.616c-0.216 0.163-0.467 0.288-0.751 0.375s-0.571 0.131-0.859 0.131c-0.413 0-0.785-0.087-1.115-0.262-0.33-0.178-0.59-0.423-0.779-0.734-0.186-0.315-0.279-0.669-0.279-1.064s0.093-0.747 0.279-1.058c0.19-0.315 0.451-0.559 0.785-0.734 0.334-0.178 0.709-0.267 1.126-0.267 0.349 0 0.666 0.059 0.95 0.176s0.523 0.288 0.717 0.512l-0.592 0.546c-0.284-0.3-0.628-0.449-1.030-0.449-0.254 0-0.48 0.053-0.677 0.159s-0.351 0.256-0.461 0.449c-0.11 0.193-0.165 0.415-0.165 0.666 0 0.247 0.055 0.466 0.165 0.66s0.262 0.345 0.455 0.455c0.197 0.106 0.421 0.159 0.671 0.159 0.266 0 0.504-0.057 0.717-0.171v-1.166zM52.936 26.596h0.922v3.231h1.997v0.751h-2.918v-3.982zM57.394 26.596h0.922v3.982h-0.922v-3.982zM61.593 30.646c-0.315 0-0.62-0.042-0.916-0.125-0.292-0.087-0.527-0.199-0.705-0.336l0.313-0.694c0.171 0.125 0.374 0.226 0.609 0.302s0.47 0.114 0.705 0.114c0.262 0 0.455-0.038 0.58-0.114 0.125-0.080 0.188-0.184 0.188-0.313 0-0.095-0.038-0.173-0.114-0.233-0.072-0.064-0.167-0.116-0.284-0.154-0.114-0.038-0.269-0.080-0.467-0.125-0.303-0.072-0.552-0.144-0.745-0.216s-0.36-0.188-0.501-0.347c-0.137-0.159-0.205-0.372-0.205-0.637 0-0.231 0.063-0.44 0.188-0.626 0.125-0.19 0.313-0.339 0.563-0.449 0.254-0.11 0.563-0.165 0.927-0.165 0.254 0 0.503 0.030 0.745 0.091s0.455 0.148 0.637 0.262l-0.284 0.7c-0.368-0.209-0.736-0.313-1.104-0.313-0.258 0-0.449 0.042-0.575 0.125-0.121 0.083-0.182 0.193-0.182 0.33s0.070 0.239 0.211 0.307c0.144 0.064 0.362 0.129 0.654 0.193 0.303 0.072 0.552 0.144 0.745 0.216s0.358 0.186 0.495 0.341c0.14 0.156 0.211 0.366 0.211 0.631 0 0.228-0.064 0.436-0.193 0.626-0.125 0.186-0.315 0.334-0.569 0.444s-0.563 0.165-0.927 0.165zM68.588 26.596v3.982h-0.922v-1.633h-1.809v1.633h-0.922v-3.982h0.922v1.57h1.809v-1.57h0.922z"></path>
<path fill="#fff" style="fill: var(--color1, #fff)" d="M74.263 14.949v2.829h-10.391v-12.942h10.15v2.829h-6.527v2.182h5.75v2.736h-5.75v2.367h6.767zM89.348 4.836v12.942h-3.014l-5.713-6.896v6.896h-3.587v-12.942h3.014l5.713 6.896v-6.896h3.587z"></path>
<path fill="#ff6b09" style="fill: var(--color2, #ff6b09)" d="M58.695 11.062c-0.189-0.423-0.45-0.84-0.831-1.322-0.962-1.209-1.255-3.905-1.258-3.931-0.013-0.129-0.104-0.236-0.225-0.275-0.124-0.039-0.257-0.003-0.345 0.094-1.147 1.283-0.665 3.265-0.404 4.057 0.072 0.217 0.15 0.472 0.205 0.731 0.424 2.091-0.394 3.038-0.587 3.229-0.186 0.052-0.313 0.026-0.43-0.1-0.404-0.443-0.538-1.894-0.349-3.785 0.039-0.385 0.029-0.731-0.026-1.054-0.399-2.324-1.86-3.815-2.233-4.338-1.023-1.513-1.128-4.031-1.131-4.053-0.003-0.12-0.072-0.226-0.179-0.278-0.104-0.052-0.231-0.045-0.329 0.023-1.708 1.16-1.561 3.956-1.323 5.518 0.055 0.362 0.163 0.731 0.349 1.196 0.662 1.665-0.13 3.814-0.137 3.834s-0.013 0.036-0.016 0.055c-0.101 0.53-0.271 0.847-0.46 0.847-0.020 0-0.039-0.003-0.062-0.010-0.231-0.049-0.352-0.294-0.355-0.507-0.013-2.757-2.78-3.685-2.809-3.695-0.124-0.039-0.261-0.003-0.345 0.097-0.088 0.1-0.104 0.239-0.046 0.356 0.033 0.068 0.137 0.365 0.065 1.416-0.062 0.944-0.235 1.878-0.512 2.773-0.658 2.146-0.554 4.179-0.548 4.276 0.506 5.505 8.423 6.469 13.122 3.368 0.515-0.339 0.935-0.727 1.245-1.154 1.734-2.392 0.714-5.64-0.046-7.366zM46.652 16.321c0.010 0.178-0.127 0.33-0.306 0.339h-0.020c-0.173 0-0.316-0.133-0.326-0.304-0.029-0.472-0.023-0.966 0.013-1.503 0.013-0.178 0.169-0.31 0.349-0.301 0.179 0.013 0.316 0.168 0.303 0.346-0.036 0.511-0.042 0.976-0.013 1.422zM46.812 13.457c-0.020 0.165-0.16 0.284-0.323 0.284-0.013 0-0.026 0-0.042-0.003-0.176-0.023-0.303-0.181-0.284-0.359l0.156-1.248c0.023-0.175 0.183-0.301 0.365-0.281 0.179 0.023 0.306 0.184 0.284 0.362l-0.156 1.245z"></path>
<path fill="#ff6b09" style="fill: var(--color2, #ff6b09)" d="M56.49 4.422c-0.178-0.027-0.3-0.192-0.272-0.368 0.020-0.131 0.138-0.804 0.458-1.142 0.123-0.13 0.329-0.137 0.461-0.015s0.138 0.327 0.015 0.457c-0.135 0.143-0.25 0.553-0.289 0.798-0.028 0.174-0.191 0.297-0.372 0.27z"></path>
<path fill="#ff6b09" style="fill: var(--color2, #ff6b09)" d="M44.608 6.032c-0.062-0.24-0.217-0.637-0.366-0.766-0.135-0.118-0.149-0.322-0.030-0.456s0.324-0.148 0.46-0.030c0.351 0.305 0.535 0.963 0.568 1.092 0.045 0.173-0.060 0.349-0.235 0.393-0.178 0.044-0.353-0.063-0.397-0.232z"></path>
</symbol>
<symbol id="icon-logo" viewBox="0 0 91 32">
<path fill="#111518" style="fill: var(--color3, #111518)" d="M13.608 4.836v12.942h-3.661v-5.047h-4.992v5.047h-3.661v-12.942h3.661v4.863h4.992v-4.863h3.661zM27.006 12.786c0 0.025-0.018 0.314-0.055 0.869h-7.285c0.148 0.518 0.431 0.918 0.851 1.202 0.431 0.271 0.968 0.407 1.609 0.407 0.481 0 0.894-0.068 1.239-0.203 0.357-0.136 0.715-0.357 1.072-0.666l1.849 1.923c-0.974 1.085-2.397 1.627-4.271 1.627-1.171 0-2.2-0.222-3.088-0.666s-1.578-1.060-2.071-1.849c-0.481-0.789-0.721-1.683-0.721-2.681 0-0.986 0.234-1.867 0.703-2.644 0.481-0.789 1.14-1.405 1.978-1.849s1.781-0.666 2.829-0.666c0.998 0 1.904 0.21 2.718 0.629 0.814 0.407 1.454 1.005 1.923 1.793 0.481 0.777 0.721 1.701 0.721 2.773zM21.663 10.086c-0.542 0-0.998 0.154-1.368 0.462-0.357 0.308-0.586 0.727-0.684 1.257h4.105c-0.099-0.53-0.333-0.949-0.703-1.257-0.357-0.308-0.807-0.462-1.35-0.462zM29.365 4.059h3.513v13.719h-3.513v-13.719zM35.901 4.059h3.513v13.719h-3.513v-13.719z"></path>
<path fill="#ff6b09" style="fill: var(--color2, #ff6b09)" d="M5.547 26.596v3.982h-0.922v-1.633h-1.809v1.633h-0.922v-3.982h0.922v1.57h1.809v-1.57h0.922zM10.596 29.838v0.74h-3.083v-3.982h3.009v0.74h-2.094v0.865h1.849v0.717h-1.849v0.922h2.167zM12.354 26.596h0.922v3.231h1.997v0.751h-2.918v-3.982zM16.811 26.596h0.922v3.231h1.997v0.751h-2.918v-3.982zM21.268 26.596h0.922v3.982h-0.922v-3.982zM25.467 30.646c-0.315 0-0.62-0.042-0.916-0.125-0.292-0.087-0.527-0.199-0.705-0.336l0.313-0.694c0.171 0.125 0.374 0.226 0.609 0.302s0.47 0.114 0.705 0.114c0.262 0 0.455-0.038 0.58-0.114 0.125-0.080 0.188-0.184 0.188-0.313 0-0.095-0.038-0.173-0.114-0.233-0.072-0.064-0.167-0.116-0.284-0.154-0.114-0.038-0.269-0.080-0.466-0.125-0.303-0.072-0.552-0.144-0.745-0.216s-0.36-0.188-0.501-0.347c-0.137-0.159-0.205-0.372-0.205-0.637 0-0.231 0.063-0.44 0.188-0.626 0.125-0.19 0.313-0.339 0.563-0.449 0.254-0.11 0.563-0.165 0.927-0.165 0.254 0 0.502 0.030 0.745 0.091s0.455 0.148 0.637 0.262l-0.284 0.7c-0.368-0.209-0.736-0.313-1.104-0.313-0.258 0-0.449 0.042-0.575 0.125-0.121 0.083-0.182 0.193-0.182 0.33s0.070 0.239 0.21 0.307c0.144 0.064 0.362 0.129 0.654 0.193 0.303 0.072 0.552 0.144 0.745 0.216s0.358 0.186 0.495 0.341c0.14 0.156 0.21 0.366 0.21 0.631 0 0.228-0.064 0.436-0.193 0.626-0.125 0.186-0.315 0.334-0.569 0.444s-0.563 0.165-0.927 0.165zM32.463 26.596v3.982h-0.922v-1.633h-1.809v1.633h-0.922v-3.982h0.922v1.57h1.809v-1.57h0.922z"></path>
<path fill="#111518" style="fill: var(--color3, #111518)" d="M40.148 29.838v0.74h-3.083v-3.982h3.009v0.74h-2.093v0.865h1.849v0.717h-1.849v0.922h2.167zM45.557 26.596v3.982h-0.757l-1.985-2.418v2.418h-0.91v-3.982h0.762l1.98 2.418v-2.418h0.91zM50.214 28.524h0.842v1.616c-0.216 0.163-0.467 0.288-0.751 0.375s-0.571 0.131-0.859 0.131c-0.413 0-0.785-0.087-1.115-0.262-0.33-0.178-0.59-0.423-0.779-0.734-0.186-0.315-0.279-0.669-0.279-1.064s0.093-0.747 0.279-1.058c0.19-0.315 0.451-0.559 0.785-0.734 0.334-0.178 0.709-0.267 1.126-0.267 0.349 0 0.666 0.059 0.95 0.176s0.523 0.288 0.717 0.512l-0.592 0.546c-0.284-0.3-0.628-0.449-1.030-0.449-0.254 0-0.48 0.053-0.677 0.159s-0.351 0.256-0.461 0.449c-0.11 0.193-0.165 0.415-0.165 0.666 0 0.247 0.055 0.466 0.165 0.66s0.262 0.345 0.455 0.455c0.197 0.106 0.421 0.159 0.671 0.159 0.266 0 0.504-0.057 0.717-0.171v-1.166zM52.936 26.596h0.922v3.231h1.997v0.751h-2.918v-3.982zM57.394 26.596h0.922v3.982h-0.922v-3.982zM61.593 30.646c-0.315 0-0.62-0.042-0.916-0.125-0.292-0.087-0.527-0.199-0.705-0.336l0.313-0.694c0.171 0.125 0.374 0.226 0.609 0.302s0.47 0.114 0.705 0.114c0.262 0 0.455-0.038 0.58-0.114 0.125-0.080 0.188-0.184 0.188-0.313 0-0.095-0.038-0.173-0.114-0.233-0.072-0.064-0.167-0.116-0.284-0.154-0.114-0.038-0.269-0.080-0.467-0.125-0.303-0.072-0.552-0.144-0.745-0.216s-0.36-0.188-0.501-0.347c-0.137-0.159-0.205-0.372-0.205-0.637 0-0.231 0.063-0.44 0.188-0.626 0.125-0.19 0.313-0.339 0.563-0.449 0.254-0.11 0.563-0.165 0.927-0.165 0.254 0 0.503 0.030 0.745 0.091s0.455 0.148 0.637 0.262l-0.284 0.7c-0.368-0.209-0.736-0.313-1.104-0.313-0.258 0-0.449 0.042-0.575 0.125-0.121 0.083-0.182 0.193-0.182 0.33s0.070 0.239 0.211 0.307c0.144 0.064 0.362 0.129 0.654 0.193 0.303 0.072 0.552 0.144 0.745 0.216s0.358 0.186 0.495 0.341c0.14 0.156 0.211 0.366 0.211 0.631 0 0.228-0.064 0.436-0.193 0.626-0.125 0.186-0.315 0.334-0.569 0.444s-0.563 0.165-0.927 0.165zM68.588 26.596v3.982h-0.922v-1.633h-1.809v1.633h-0.922v-3.982h0.922v1.57h1.809v-1.57h0.922z"></path>
<path fill="#111518" style="fill: var(--color3, #111518)" d="M74.263 14.949v2.829h-10.391v-12.942h10.15v2.829h-6.527v2.182h5.75v2.736h-5.75v2.367h6.767zM89.348 4.836v12.942h-3.014l-5.713-6.896v6.896h-3.587v-12.942h3.014l5.713 6.896v-6.896h3.587z"></path>
<path fill="#ff6b09" style="fill: var(--color2, #ff6b09)" d="M58.695 11.062c-0.189-0.423-0.45-0.84-0.831-1.322-0.962-1.209-1.255-3.905-1.258-3.931-0.013-0.129-0.104-0.236-0.225-0.275-0.124-0.039-0.257-0.003-0.345 0.094-1.147 1.283-0.665 3.265-0.404 4.057 0.072 0.217 0.15 0.472 0.205 0.731 0.424 2.091-0.394 3.038-0.587 3.229-0.186 0.052-0.313 0.026-0.43-0.1-0.404-0.443-0.538-1.894-0.349-3.785 0.039-0.385 0.029-0.731-0.026-1.054-0.399-2.324-1.86-3.815-2.233-4.338-1.023-1.513-1.128-4.031-1.131-4.053-0.003-0.12-0.072-0.226-0.179-0.278-0.104-0.052-0.231-0.045-0.329 0.023-1.708 1.16-1.561 3.956-1.323 5.518 0.055 0.362 0.163 0.731 0.349 1.196 0.662 1.665-0.13 3.814-0.137 3.834s-0.013 0.036-0.016 0.055c-0.101 0.53-0.271 0.847-0.46 0.847-0.020 0-0.039-0.003-0.062-0.010-0.231-0.049-0.352-0.294-0.355-0.507-0.013-2.757-2.78-3.685-2.809-3.695-0.124-0.039-0.261-0.003-0.345 0.097-0.088 0.1-0.104 0.239-0.046 0.356 0.033 0.068 0.137 0.365 0.065 1.416-0.062 0.944-0.235 1.878-0.512 2.773-0.658 2.146-0.554 4.179-0.548 4.276 0.506 5.505 8.423 6.469 13.122 3.368 0.515-0.339 0.935-0.727 1.245-1.154 1.734-2.392 0.714-5.64-0.046-7.366zM46.652 16.321c0.010 0.178-0.127 0.33-0.306 0.339h-0.020c-0.173 0-0.316-0.133-0.326-0.304-0.029-0.472-0.023-0.966 0.013-1.503 0.013-0.178 0.169-0.31 0.349-0.301 0.179 0.013 0.316 0.168 0.303 0.346-0.036 0.511-0.042 0.976-0.013 1.422zM46.812 13.457c-0.020 0.165-0.16 0.284-0.323 0.284-0.013 0-0.026 0-0.042-0.003-0.176-0.023-0.303-0.181-0.284-0.359l0.156-1.248c0.023-0.175 0.183-0.301 0.365-0.281 0.179 0.023 0.306 0.184 0.284 0.362l-0.156 1.245z"></path>
<path fill="#ff6b09" style="fill: var(--color2, #ff6b09)" d="M56.49 4.422c-0.178-0.027-0.3-0.192-0.272-0.368 0.020-0.131 0.138-0.804 0.458-1.142 0.123-0.13 0.329-0.137 0.461-0.015s0.138 0.327 0.015 0.457c-0.135 0.143-0.25 0.553-0.289 0.798-0.028 0.174-0.191 0.297-0.372 0.27z"></path>
<path fill="#ff6b09" style="fill: var(--color2, #ff6b09)" d="M44.608 6.032c-0.062-0.24-0.217-0.637-0.366-0.766-0.135-0.118-0.149-0.322-0.030-0.456s0.324-0.148 0.46-0.030c0.351 0.305 0.535 0.963 0.568 1.092 0.045 0.173-0.060 0.349-0.235 0.393-0.178 0.044-0.353-0.063-0.397-0.232z"></path>
</symbol>
<symbol id="icon-menu" viewBox="0 0 32 32">
<path stroke="black" stroke-linejoin="miter" stroke-linecap="round" stroke-miterlimit="4" stroke-width="2.7826" d="M1.391 7.652h29.217M1.391 16h29.217M1.391 24.348h29.217"></path>
</symbol>
<symbol id="icon-mobile-learning" viewBox="0 0 32 32">
<path d="M28.090 2.327h-13.424c-0.001 0-0.002 0-0.002 0-0.872 0-1.579 0.705-1.583 1.576v5.526l-9.972 4.162c-0.118 0.050-0.199 0.164-0.199 0.298 0 0.117 0.062 0.22 0.156 0.276l0.001 0.001 1.272 0.757v8.066c-0.655 0.151-1.136 0.729-1.139 1.419v0.778c0 0.178 0.145 0.323 0.325 0.323h2.277c0 0 0 0 0.001 0 0.179 0 0.323-0.144 0.324-0.323v-0.777c-0.003-0.69-0.484-1.267-1.129-1.417l-0.010-0.002v-7.68l1.006 0.598c-0.031 0.23-0.004-0.401-0.015 3.756 0 1.367 3.52 2.099 7.102 2.14v6.295c0 0.325 0.1 0.627 0.272 0.879 0.289 0.422 0.768 0.695 1.312 0.695 0 0 0.001 0 0.001 0h13.424c0.873 0 1.583-0.706 1.583-1.574 0 0.043-0.002-1.334 0-24.195 0-0.857-0.713-1.576-1.583-1.576zM5.478 24.408v0.454h-1.628v-0.454c0-0.448 0.364-0.812 0.812-0.812 0.001 0 0.001 0 0.002 0 0.449 0 0.813 0.363 0.815 0.811v0zM28.090 29.025h-13.424c-0 0-0.001 0-0.001 0-0.32 0-0.603-0.16-0.772-0.405l-0.002-0.003c-0.1-0.145-0.159-0.324-0.159-0.517 0-0 0-0.001 0-0.001v0-2.182h15.29v2.182c-0.006 0.511-0.42 0.923-0.931 0.926h-0zM29.021 25.27h-15.29v-3.464c1.748-0.020 7.106-0.403 7.106-2.142-0.002-2.612 0.005-3.671-0.008-3.76l2.917-1.737c0.095-0.057 0.157-0.16 0.157-0.277 0-0.133-0.081-0.248-0.196-0.297l-0.002-0.001-9.973-4.163v-2.697h15.29v18.538zM13.407 17.519c-1.802 0-5.27 0.232-6.777 1.21 0.009-2.993-0.105-2.799 0.266-3.052 0.936-0.686 3.613-1.164 6.511-1.164 1.264 0 6.782 0.346 6.782 1.507v2.709c-1.521-0.987-4.972-1.21-6.781-1.21zM13.731 3.904c0-0.512 0.419-0.929 0.934-0.929h13.424c0.515 0 0.932 0.422 0.932 0.929v2.182h-15.29v-2.182zM13.405 9.994l9.455 3.946-2.342 1.394c-1.246-1.228-5.366-1.466-7.112-1.466-1.749 0-5.869 0.239-7.112 1.466l-2.343-1.394 9.456-3.946zM6.629 19.664c0-0.523 2.327-1.498 6.777-1.498 4.452 0 6.781 0.975 6.781 1.498s-2.329 1.499-6.781 1.499c-4.45 0-6.777-0.976-6.777-1.499z"></path>
<path d="M21.377 26.403c-0.001 0-0.001 0-0.002 0-0.591 0-1.070 0.478-1.072 1.068v0c0 0.589 0.482 1.069 1.074 1.069 0 0 0.001 0 0.001 0 0.591 0 1.071-0.478 1.073-1.069v-0c-0.002-0.59-0.482-1.068-1.072-1.068-0.001 0-0.001 0-0.002 0h0zM21.377 27.894c0 0 0 0 0 0-0.234 0-0.424-0.189-0.425-0.423v-0c0-0.233 0.19-0.422 0.425-0.422s0.425 0.19 0.425 0.422c-0.001 0.234-0.191 0.423-0.425 0.423 0 0 0 0 0 0v0zM22.616 4.207h-2.478v0.646h2.478v-0.646z"></path>
</symbol>
<symbol id="icon-open-book" viewBox="0 0 32 32">
<path  d="M14.717 9.194h-8.443v0.635h8.443v-0.635zM14.717 11.567h-7.179v0.635h7.18v-0.635zM14.717 13.939h-8.443v0.635h8.443v-0.635zM14.717 16.311h-7.179v0.635h7.18v-0.635zM14.717 18.683h-8.443v0.636h8.443v-0.637zM14.717 21.055h-7.179v0.636h7.18v-0.636zM26.308 9.194h-8.443v0.635h8.443v-0.635zM25.043 11.567h-7.179v0.635h7.18v-0.635zM26.308 13.939h-8.443v0.635h8.443v-0.635zM25.043 16.311h-7.179v0.635h7.18v-0.635zM26.308 18.683h-8.443v0.636h8.443v-0.637zM25.043 21.055h-7.179v0.636h7.18v-0.636z"></path>
<path  d="M29.357 8.47h-1.159v-1.752c0-0 0-0.001 0-0.001 0-0.175-0.142-0.317-0.317-0.317 0 0 0 0 0 0h-9.449c-0.002 0-0.005 0-0.008 0-0.912 0-1.707 0.5-2.126 1.241l-0.006 0.012c-0.426-0.753-1.221-1.253-2.133-1.253-0.003 0-0.005 0-0.008 0h-9.449c-0.175 0-0.316 0.143-0.316 0.318v1.751h-1.159c-0.175 0-0.316 0.143-0.316 0.318v17.076c0 0.175 0.141 0.318 0.316 0.318h26.132c0.175 0 0.316-0.143 0.316-0.318v-17.076c0-0 0-0 0-0.001 0-0.175-0.141-0.316-0.316-0.317h-0zM18.432 7.037h9.133v17.037h-9.808c-0.439 0.007-0.84 0.166-1.154 0.426l0.003-0.002v-15.629c-0-0.003-0-0.008-0-0.012 0-1.006 0.815-1.821 1.821-1.821 0.001 0 0.003 0 0.004 0h-0zM5.016 7.037h9.133c0.002 0 0.004 0 0.007 0 0.984 0 1.785 0.783 1.814 1.76l0 0.003c0 0.013 0.002 0.056 0.004 0.070v15.628c-0.309-0.257-0.709-0.415-1.145-0.422l-0.002-0h-9.813v-17.038zM3.542 9.105h0.842v15.286c0 0.176 0.142 0.318 0.317 0.318h10.128c0.482 0 0.948 0.318 1.097 0.835h-12.383v-16.44zM29.040 25.545h-12.383c0.139-0.486 0.579-0.835 1.101-0.835h10.124c0.175 0 0.317-0.143 0.317-0.318v-15.286h0.842v16.44z"></path>
</symbol>
<symbol id="icon-phone" viewBox="0 0 32 32">
<path d="M4.657 0.002c-0.558 0.028-1.050 0.284-1.391 0.676l-0.002 0.002-2.594 2.969c0.004-0.009-0.011-0.007-0.083 0.101-0.037 0.053-0.068 0.114-0.089 0.179l-0.001 0.005c-1.056 3.502-0.348 7.354 1.376 11.018 1.726 3.664 4.476 7.17 7.634 10.047 3.157 2.877 6.721 5.127 10.118 6.244 3.398 1.117 6.692 1.102 9.134-0.742 0.027-0.021 0.052-0.043 0.074-0.067l0-0c0.064-0.066 0.066-0.075 0.055-0.064l0.011-0.014 2.581-2.956c0.741-0.849 0.683-2.185-0.134-2.957l-6.125-5.799c-0.352-0.335-0.829-0.541-1.354-0.541-0.593 0-1.124 0.262-1.484 0.677l-0.002 0.002-2.771 3.173c-2.251-0.678-4.174-1.828-6.023-3.58-1.85-1.753-3.132-3.637-3.993-5.906l2.77-3.172c0.742-0.849 0.683-2.185-0.132-2.957l-6.126-5.799c-0.351-0.335-0.827-0.541-1.351-0.541-0.034 0-0.068 0.001-0.102 0.003l0.005-0zM4.715 1.303c0.008-0 0.018-0.001 0.028-0.001 0.2 0 0.381 0.080 0.513 0.21l-0-0 6.126 5.801c0.316 0.299 0.337 0.775 0.050 1.104l-3.063 3.504c-0.101 0.118-0.162 0.273-0.162 0.442 0 0.080 0.014 0.157 0.039 0.228l-0.001-0.005c0.93 2.64 2.43 4.806 4.493 6.761 2.064 1.953 4.275 3.303 6.889 4.017 0.049 0.014 0.105 0.022 0.163 0.022 0.185 0 0.351-0.083 0.462-0.213l0.001-0.001 3.063-3.506c0.132-0.161 0.331-0.262 0.553-0.262 0.198 0 0.378 0.081 0.507 0.211l0 0 6.127 5.799c0.316 0.299 0.336 0.775 0.049 1.103l-2.561 2.931c-2.003 1.497-4.826 1.581-7.986 0.542-3.173-1.042-6.618-3.202-9.666-5.98s-5.701-6.17-7.332-9.633c-1.614-3.429-2.199-6.895-1.312-9.951l2.502-2.862c0.127-0.15 0.31-0.248 0.517-0.261l0.002-0z"></path>
</symbol>
<symbol id="icon-line" viewBox="0 0 32 32">
<path d="M0 14.4h32v3.2h-32z"></path>
</symbol>
<symbol id="icon-study-program" viewBox="0 0 32 32">
<path d="M29.071 6.088v-0.002c-0.013-0.031-0.031-0.057-0.053-0.079l-0-0-4.231-4.189c-0.011-0.010-0.022-0.020-0.035-0.028l-0.001-0.001-0.008-0.005c-0.009-0.006-0.019-0.011-0.030-0.016l-0.002-0.001-0.009-0.004c-0.026-0.010-0.056-0.017-0.087-0.017h-18.642c-0.138 0-0.25 0.111-0.25 0.247v25.546c0 0.016 0.002 0.033 0.005 0.049l0.006 0.020c0.003 0.009 0.005 0.017 0.008 0.026l0.012 0.022c0.004 0.006 0.007 0.014 0.012 0.020 0.009 0.013 0.019 0.024 0.029 0.035v0l0.002 0.002 1.906 1.886c0.097 0.097 0.255 0.097 0.353 0l1.73-1.711 1.729 1.711c0.045 0.045 0.108 0.073 0.177 0.073s0.132-0.028 0.177-0.073v0l1.729-1.711 1.73 1.711c0.098 0.097 0.256 0.097 0.354 0l1.728-1.711 1.729 1.711c0.098 0.097 0.256 0.097 0.353 0l1.73-1.711 1.728 1.711c0.045 0.045 0.108 0.073 0.177 0.073s0.132-0.028 0.177-0.073v0l1.729-1.711 1.73 1.711c0.097 0.097 0.256 0.097 0.353 0l1.905-1.886c0.004-0.003 0.006-0.008 0.010-0.012 0.007-0.008 0.015-0.016 0.021-0.026 0.006-0.008 0.010-0.017 0.015-0.026l0.008-0.016c0.005-0.012 0.008-0.023 0.010-0.034l0.004-0.012c0.003-0.015 0.006-0.033 0.006-0.050v-21.356c-0.001-0.034-0.009-0.067-0.022-0.096l0.001 0.002zM24.859 2.591l3.377 3.343h-3.377v-3.343zM28.59 27.436l-1.655 1.638-1.73-1.711c-0.045-0.045-0.108-0.073-0.177-0.073s-0.131 0.028-0.177 0.073l0-0-1.728 1.711-1.729-1.711c-0.046-0.045-0.108-0.072-0.177-0.072s-0.131 0.028-0.177 0.072l0-0-1.73 1.711-1.728-1.711c-0.045-0.045-0.108-0.073-0.177-0.073s-0.132 0.028-0.177 0.073h-0.001l-1.728 1.711-1.73-1.711c-0.046-0.045-0.108-0.072-0.177-0.072s-0.131 0.028-0.177 0.072l0-0-1.728 1.711-1.729-1.711c-0.046-0.045-0.108-0.072-0.177-0.072s-0.131 0.028-0.177 0.072l0-0-1.73 1.711-1.655-1.638v-25.196h18.138v3.941c0 0.137 0.112 0.248 0.25 0.248h3.98v21.007z"></path>
<path d="M8.086 4.583h8.19c0.138 0 0.25-0.111 0.25-0.248s-0.112-0.248-0.249-0.248c-0 0-0.001 0-0.001 0h-8.19c-0.138 0-0.25 0.111-0.25 0.248s0.112 0.248 0.25 0.248zM8.086 6.114h13.133c0.138 0 0.25-0.111 0.25-0.248-0.001-0.137-0.112-0.247-0.249-0.247-0 0-0.001 0-0.001 0h-13.134c-0.138 0-0.25 0.111-0.25 0.247s0.112 0.248 0.25 0.248zM7.835 7.488v8.017c0 0.137 0.112 0.248 0.25 0.248h18.639c0.138 0 0.25-0.111 0.25-0.248v-8.017c-0.001-0.137-0.112-0.247-0.249-0.247-0 0-0.001 0-0.001 0h-18.639c-0.138 0-0.25 0.111-0.25 0.247zM13.363 7.736h13.111v2.131h-13.111v-2.131zM13.363 10.362h13.111v2.129h-13.111v-2.129zM13.363 12.987h13.111v2.27h-13.111v-2.27zM8.336 7.736h4.527v2.131h-4.527v-2.131zM8.336 10.362h4.527v2.129h-4.527v-2.129zM8.336 12.987h4.527v2.27h-4.527v-2.27zM26.725 16.867h-18.639c-0.138 0-0.25 0.111-0.25 0.248v8.017c0 0.136 0.112 0.247 0.25 0.247s0.25-0.111 0.25-0.247v-2.518h4.527v2.518c0 0.137 0.112 0.247 0.25 0.247s0.25-0.111 0.25-0.247v-2.518h13.111v2.518c0 0.137 0.112 0.247 0.25 0.247s0.25-0.111 0.25-0.247v-8.017c-0-0.137-0.111-0.247-0.248-0.247-0.001 0-0.001 0-0.002 0h0zM12.863 22.118h-4.527v-2.129h4.527v2.129zM12.863 19.493h-4.527v-2.131h4.527v2.131zM26.474 22.118h-13.111v-2.129h13.111v2.129zM26.474 19.493h-13.111v-2.131h13.111v2.131zM4.535 1.745c-0.138 0-0.25 0.111-0.25 0.248v25.546c0 0.136 0.112 0.247 0.25 0.247s0.25-0.111 0.25-0.247v-25.546c-0.001-0.137-0.112-0.248-0.249-0.248-0 0-0.001 0-0.001 0h0zM3.159 1.745c-0.138 0-0.25 0.111-0.25 0.248v25.546c0 0.136 0.112 0.247 0.25 0.247s0.25-0.111 0.25-0.247v-25.546c-0.001-0.137-0.112-0.248-0.249-0.248-0 0-0.001 0-0.001 0h0z"></path>
</symbol>
<symbol id="icon-union" viewBox="0 0 32 32">
<path d="M4.055 13.287v2.471c0 0.133 0.061 0.258 0.164 0.34 1.612 1.283 3.677 2.059 5.924 2.061h0.001c0.677-0.001 1.337-0.072 1.974-0.207l-0.063 0.011c1.242 0.569 2.693 0.901 4.223 0.901 0.005 0 0.010 0 0.015 0h-0.001c0.006 0 0.013 0 0.021 0 1.527 0 2.977-0.332 4.281-0.927l-0.065 0.026c2.678 0.545 5.532-0.040 7.835-1.866 0.1-0.080 0.164-0.203 0.164-0.34 0-0 0-0 0-0v0-2.471c0-0.362-0.179-0.693-0.498-0.896l-3.351-1.899c0.733-0.937 1.279-2.271 1.374-3.415 0.278-1.969-1.315-4.055-3.609-4.055-0.965 0-1.882 0.4-2.554 1.071-0.023 0.023-0.050 0.043-0.073 0.067-0.020 0.022-0.037 0.047-0.058 0.070-0.013 0.015-0.025 0.031-0.038 0.047-0.656-1.205-1.915-1.949-3.4-1.949-0.144 0-0.286 0.010-0.426 0.024-0.009-0.001-0.016-0.005-0.025-0.005-0.079 0-0.248 0.022-0.338 0.048-0.013 0.003-0.023 0.013-0.036 0.018-1.125 0.231-2.055 0.922-2.601 1.863l-0.010 0.019c-0.666-0.78-1.65-1.271-2.749-1.271-0.002 0-0.004 0-0.005 0h0c-3.386 0-4.889 4.025-2.216 7.489l-3.382 1.891c-0.29 0.188-0.479 0.51-0.479 0.877 0 0.003 0 0.006 0 0.009v-0zM20.52 17.014c-0.073 0.035-0.144 0.074-0.218 0.108l-0.002 0.001c-1.168 0.554-2.538 0.878-3.984 0.878-0.009 0-0.018 0-0.028-0h0.001c-1.398 0-2.746-0.296-4.011-0.879-0.676-0.316-1.258-0.671-1.794-1.083l0.023 0.017v-2.505c0-0.085 0.041-0.161 0.088-0.193l3.935-2.203c0.49 0.419 1.115 0.726 1.763 0.726 0.625 0 1.299-0.312 1.779-0.736l3.888 2.199c0.072 0.047 0.113 0.122 0.113 0.207v2.505c-0.451 0.345-0.96 0.664-1.499 0.933l-0.055 0.025zM27.589 13.133c0.048 0.032 0.080 0.086 0.080 0.148 0 0.002-0 0.004-0 0.007v-0 2.258c-1.428 1.093-3.239 1.751-5.204 1.751-0.223 0-0.444-0.008-0.663-0.025l0.029 0.002c0.32-0.201 0.668-0.451 0.938-0.664 0.101-0.080 0.165-0.203 0.165-0.34 0 0 0-0 0-0v0-2.718c0-0.379-0.189-0.729-0.529-0.948l-2.065-1.169 0.502-0.28c0.609 0.5 1.132 0.649 1.602 0.649 0.574 0 1.178-0.283 1.627-0.662l3.518 1.993zM22.444 3.888c1.196 0 2.246 0.787 2.618 1.869-0.771-0.101-1.443-0.464-1.937-0.995l-0.002-0.002c-0.079-0.084-0.19-0.137-0.314-0.137-0.156 0-0.293 0.083-0.368 0.208l-0.001 0.002c-0.49 0.827-1.293 1.379-2.207 1.536v-0.003c0-0.021 0.001-0.046 0.001-0.071 0-0.176-0.011-0.349-0.031-0.519l0.002 0.021-0.006-0.058c-0.030-0.209-0.067-0.389-0.113-0.565l0.008 0.034c0.488-0.787 1.395-1.321 2.351-1.321zM20.138 7.252c1.121-0.126 2.088-0.696 2.735-1.528l0.007-0.009c0.665 0.549 1.508 0.881 2.341 0.922-0.006 1.564-1.274 4.3-2.778 4.3-1.159 0-2.148-1.669-2.518-2.826 0.094-0.297 0.162-0.584 0.212-0.858zM20.226 10.507l-0.768 0.428-0.774-0.439c0.287-0.361 0.55-0.779 0.776-1.233 0.217 0.46 0.477 0.881 0.766 1.244zM19.068 7.969c-0.415 1.245-1.478 3.046-2.772 3.046-1.51 0-2.795-2.499-3.040-4.098 0.065-0.016 2.105 0.111 3.508-1.746 0.713 0.6 1.674 0.998 2.609 1.037 0.011 0.564-0.125 1.228-0.305 1.762zM16.321 3.192c2.409 0 2.867 2.089 2.904 2.132-0.882-0.1-1.654-0.507-2.218-1.112l-0.002-0.002c-0.078-0.085-0.19-0.137-0.314-0.137-0.157 0-0.294 0.085-0.369 0.211l-0.001 0.002c-0.46 0.785-1.193 1.368-2.067 1.623l-0.025 0.006c-0.296 0.085-0.636 0.134-0.988 0.134-0.008 0-0.016-0-0.024-0h0.001c0.118-1.59 1.383-2.857 3.102-2.857zM13.125 9.255c0.223 0.449 0.488 0.879 0.791 1.255l-0.759 0.425-0.785-0.444c0.298-0.383 0.551-0.81 0.753-1.235zM10.131 3.888c0.974 0 1.867 0.498 2.364 1.321-0.025 0.087-0.092 0.435-0.101 0.478-0.627-0.156-1.164-0.482-1.575-0.925l-0.002-0.002c-0.078-0.084-0.19-0.137-0.313-0.137-0.157 0-0.294 0.085-0.368 0.21l-0.001 0.002c-0.566 0.95-1.586 1.578-2.752 1.584h-0.001c0.137-1.42 1.315-2.531 2.75-2.531zM7.419 7.282c1.28-0.017 2.415-0.623 3.15-1.558l0.007-0.009c0.493 0.408 1.094 0.703 1.755 0.834l0.025 0.004c0.026 0.502 0.155 1.111 0.304 1.561-0.237 0.733-0.692 1.606-1.257 2.186-0.004 0.004-0.009 0.005-0.012 0.009-0.354 0.375-0.856 0.627-1.252 0.627-1.381 0-2.461-2.189-2.721-3.655zM4.914 13.287c0-0.066 0.029-0.122 0.058-0.141l3.567-1.993c0.214 0.18 0.263 0.2 0.306 0.232 0.419 0.282 0.804 0.421 1.329 0.421 0.559 0 1.068-0.239 1.516-0.606 0.025-0.020 0.052-0.039 0.076-0.059l0.509 0.288-2.12 1.188c-0.317 0.206-0.506 0.556-0.506 0.935v2.718c0 0.133 0.060 0.258 0.165 0.34 0.274 0.217 0.63 0.471 0.938 0.664-2.109 0.145-4.161-0.461-5.837-1.728v-2.258z"></path>
<path d="M29.412 20.463c-0.27-0.175-0.6-0.279-0.955-0.279-0.286 0-0.555 0.067-0.794 0.187l0.010-0.005-5.302 2.58c-0.019-1-0.829-1.808-1.826-1.808l-3.040 0.001c-1.499-1.313-3.415-2.117-5.157-2.159-1.132-0.029-2.527-0.049-3.925-0.056l-0.055-0v-0.874h-6.040v10.050h6.041v-1.204c1.656 0.958 6.011 3.357 8.079 3.357 0.047 0 0.093-0.001 0.137-0.004 3.635-0.205 12.209-6.282 12.774-6.685 0.54-0.322 0.897-0.902 0.897-1.567 0-0 0-0.001 0-0.001v0c0-0.002 0-0.005 0-0.008 0-0.64-0.333-1.202-0.836-1.523l-0.007-0.004zM7.509 27.237h-4.323v-8.32h4.323v8.32zM28.916 22.823c-0.015 0.008-0.027 0.016-0.039 0.025l0.001-0.001c-0.089 0.063-8.908 6.346-12.342 6.54-0.031 0.002-0.068 0.003-0.104 0.003h-0c-1.813 0-6.233-2.402-8.064-3.491v-6.106c0.717 0.003 2.25 0.015 3.959 0.055 1.592 0.038 3.359 0.804 4.727 2.047l0.122 0.111h3.369c0.535 0 0.97 0.438 0.97 0.976s-0.435 0.977-0.969 0.977h-6.188v0.865h6.188c0.593 0 1.116-0.29 1.45-0.733l6.051-2.944c0.297-0.145 0.628-0.127 0.909 0.050 0.279 0.176 0.44 0.468 0.44 0.801 0 0.342-0.183 0.657-0.479 0.825zM16.721 12.938h-0.859v0.803h0.859v-0.803zM16.721 14.538h-0.859v0.803h0.859v-0.803zM16.721 16.14h-0.859v0.802h0.859v-0.803z"></path>
</symbol>
<symbol id="icon-border-line" viewBox="0 0 32 32">
<path fill="none" stroke="#b9b9b9" style="stroke: var(--color6, #b9b9b9)" stroke-linejoin="miter" stroke-linecap="butt" stroke-miterlimit="4" stroke-width="0.8" d="M16 0v32"></path>
</symbol>
<symbol id="icon-check-mark" viewBox="0 0 32 32">
<path d="M28.237 4.411c-1.216 0.531-2.382 1.18-3.495 1.903-2.238 1.437-4.284 3.149-6.203 4.975-1.918 1.83-3.704 3.788-5.393 5.824-0.422 0.509-2.313 2.776-2.313 2.776l-7.864-11.504-2.969 8.033 10.635 12.381c1.033-2.041 2.027-4.056 3.001-5.806 0.242-0.445 0.496-0.864 0.738-1.29 0 0 1.248-2.142 1.576-2.681 1.312-2.158 2.731-4.26 4.293-6.256 1.564-1.993 3.264-3.896 5.191-5.569 0.959-0.842 1.98-1.62 3.073-2.298 1.092-0.679 2.251-1.273 3.492-1.7-1.291 0.248-2.55 0.678-3.763 1.211z"></path>
</symbol>
</defs>
</svg>
