<svg width="22" height="30" fill="none" xmlns="http://www.w3.org/2000/svg"><g clip-path="url(#a)" fill="#FF6B09"><path d="M18.661 15.556c-.266-.596-.633-1.182-1.17-1.86-1.354-1.7-1.768-5.49-1.772-5.527a.458.458 0 0 0-.317-.386.466.466 0 0 0-.486.132c-1.616 1.804-.937 4.59-.57 5.704.101.305.211.664.29 1.027.596 2.941-.556 4.273-.827 4.541-.261.073-.44.037-.606-.14-.569-.623-.757-2.664-.49-5.323a5.434 5.434 0 0 0-.038-1.482c-.561-3.268-2.62-5.365-3.144-6.1C8.09 4.015 7.943.474 7.938.442a.459.459 0 0 0-.716-.36c-2.405 1.633-2.199 5.564-1.864 7.76.078.509.23 1.027.492 1.682.931 2.34-.184 5.363-.193 5.39-.01.028-.019.05-.023.078-.142.745-.381 1.19-.647 1.19a.314.314 0 0 1-.088-.013c-.326-.068-.495-.413-.5-.713C4.381 11.578.484 10.274.442 10.26a.457.457 0 0 0-.55.636c.045.096.192.514.091 1.991a16.955 16.955 0 0 1-.72 3.9c-.928 3.019-.78 5.878-.772 6.014.713 7.741 11.864 9.098 18.48 4.736.726-.477 1.318-1.022 1.754-1.622 2.442-3.364 1.006-7.932-.064-10.36ZM1.7 22.95a.454.454 0 0 1-.431.477H1.24a.456.456 0 0 1-.46-.427c-.04-.664-.031-1.36.02-2.114a.463.463 0 0 1 .49-.422.458.458 0 0 1 .427.486 14.65 14.65 0 0 0-.018 2Zm.225-4.027a.455.455 0 0 1-.455.4c-.018 0-.036 0-.06-.005a.459.459 0 0 1-.399-.504l.22-1.755a.463.463 0 0 1 .515-.395c.252.032.431.259.4.509l-.221 1.75ZM15.556 6.219a.455.455 0 0 1-.384-.518c.03-.185.195-1.13.645-1.606a.462.462 0 0 1 .649-.02c.185.171.194.459.02.642-.19.201-.352.777-.406 1.122a.459.459 0 0 1-.524.38Z"/></g><defs><clipPath id="a"><path fill="#fff" d="M0 0h22v30H0z"/></clipPath></defs></svg>